<?xml version="1.0" encoding="UTF-8"?>
<!DOCTYPE svg  PUBLIC '-//W3C//DTD SVG 1.1//EN'  'http://www.w3.org/Graphics/SVG/1.1/DTD/svg11.dtd'>
<svg enable-background="new 0 0 800 800" version="1.1" viewBox="0 0 800 800" xml:space="preserve" xmlns="http://www.w3.org/2000/svg">
			<radialGradient id="x" cx="151.75" cy="389.91" r="106.73" fx="152.08" fy="368.97" gradientTransform="matrix(.029264 -.9996 .8228 .024088 -173.5 532.2)" gradientUnits="userSpaceOnUse">
			<stop stop-color="#fff" offset="0"/>
			<stop stop-color="#fff" offset=".2447"/>
			<stop stop-color="#fff" offset=".2849"/>
			<stop stop-color="#FDFDFD" offset=".5915"/>
			<stop stop-color="#F6F6F7" offset=".7019"/>
			<stop stop-color="#EBEBEB" offset=".7806"/>
			<stop stop-color="#DADADB" offset=".8442"/>
			<stop stop-color="#C4C5C6" offset=".8987"/>
			<stop stop-color="#A8AAAC" offset=".9469"/>
			<stop stop-color="#898B8E" offset=".9896"/>
			<stop stop-color="#808285" offset="1"/>
		</radialGradient>
		<path d="m221.3 354c-3.9-23.3-18.3-42.1-39.8-51.8-21.2-9.6-43.4-9.6-64.6 0-21.5 9.7-35.9 28.5-39.8 51.8-2.4 14.6-1.2 29.9 4.2 43.7 2.6 6.6 6.2 12.6 9.5 18.8 3.5 6.7 7.2 13.2 11 19.7 4.7 8 7.3 17.1 7.5 26.3 0 0 0.5 7.8 7.8 16.6l32.1 0.5 32.1-0.5c7.3-8.8 7.8-16.6 7.8-16.6 0.2-9.3 2.8-18.3 7.5-26.3 3.8-6.5 7.5-13.1 11-19.7 3.3-6.2 6.9-12.3 9.5-18.8 5.4-13.9 6.6-29.1 4.2-43.7z" fill="url(#x)"/>
			<path d="m169.1 536.1s-0.2 0.1-0.4 0.4c-0.1 0-0.1 0.1-0.2 0.2-1.8 1.6-6.6 6.1-7.1 7.3-0.6 1.6-1.6 2.4-2.9 2.4l-9.8 0.5-9.8-0.5c-1.3 0-2.3-0.9-2.9-2.4-0.4-1.1-4.3-4.8-6.4-6.7-0.8-0.7-1.3-1.2-1.3-1.2l20.4-0.5 20.4 0.5z"/>
			<linearGradient id="y" x1="148.69" x2="151.39" y1="495.36" y2="537.17" gradientUnits="userSpaceOnUse">
				<stop stop-color="#414042" offset="0"/>
				<stop stop-color="#918D90" offset=".1"/>
				<stop stop-color="#231F20" offset=".1946"/>
				<stop stop-color="#918D90" offset=".3"/>
				<stop stop-color="#231F20" offset=".4"/>
				<stop stop-color="#918D90" offset=".5"/>
				<stop stop-color="#231F20" offset=".6"/>
				<stop stop-color="#918D90" offset=".7"/>
				<stop stop-color="#635F61" offset=".8124"/>
				<stop stop-color="#353132" offset=".9374"/>
				<stop stop-color="#231F20" offset="1"/>
			</linearGradient>
			<path d="m179.4 514c0.7 0.7 1.5 1.2 1.5 1.2l0.1 0.1c0.4 0.4 1.4 1.7-0.3 3.3-0.2 0.2-0.4 0.3-0.6 0.5-0.2 0.1-0.3 0.3-0.5 0.4-2.1 2.1 0.4 4.1 0.4 4.1s3.2 1.7-1.3 4.5l-8.9 7.7c-0.3 0.3-0.7 0.5-1.1 0.6-0.1 0-0.1 0.1-0.2 0.2h-0.8l-19.2 0.8-18.8-0.2c-0.4 0-0.7-0.2-1-0.4-0.9-0.9-3.3-3.2-5.3-5-0.2-0.2-0.4-0.3-0.6-0.5-0.4-0.3-0.8-0.6-1.1-0.9-0.3-0.2-0.6-0.5-0.8-0.7-1.8-1.8-1.4-3.1-1.4-3.1 1.3-3.5-1.9-4.1-1.9-4.1-0.2-0.2-0.4-0.4-0.5-0.6-0.1-0.1-0.1-0.1-0.1-0.2s-0.1-0.1-0.1-0.2c-0.2-0.4-0.2-0.8-0.1-1.2 0.1-0.2 0.1-0.4 0.2-0.6 0.1-0.1 0.1-0.2 0.2-0.3 0 0 0-0.1 0.1-0.1 0.5-0.3 1-0.7 1.3-1l0.2-0.2c0.6-0.7 0.7-1.3 0.7-1.3s0.1-0.4-0.3-1.3c0-0.1-0.1-0.1-0.1-0.2 0 0 0-0.1-0.1-0.1-0.1-0.1-0.1-0.2-0.2-0.4-0.1-0.1-0.2-0.3-0.3-0.4-0.2-0.3-0.5-0.7-0.9-1.1-0.1-0.1-0.2-0.3-0.3-0.4-0.8-1.2-0.1-2.3 0.6-3l0.1-0.1c0.4-0.4 0.9-0.6 0.9-0.6s1.2-2.2-0.3-3.7l-0.4-0.4c-0.3-0.2-0.5-0.4-0.7-0.6-1.2-1.3-0.4-2.8-0.4-2.8 0.2-0.2 0.4-0.3 0.6-0.5l0.2-0.2c0.2-0.2 0.4-0.4 0.6-0.5 0.1-0.1 0.1-0.1 0.1-0.2 0.3-0.4 0.4-0.6 0.5-0.8s0-0.3 0-0.3 0.1-0.2 0.1-0.4c0.2-0.8 0.4-2.5-1.2-3.4-2.1-1.2 0-10.5 0-10.5-0.1-0.1-0.1-0.2-0.2-0.3 0 0 0-0.1-0.1-0.1 0-0.1 0-0.1-0.1-0.2v-0.1c-0.1-0.3-0.2-0.6-0.3-0.8v-0.2c0-0.1 0.1-0.1 0.1-0.2 0.2-0.5 0-1.6-0.3-2.4 0-0.1-0.1-0.2-0.1-0.3s-0.1-0.3-0.1-0.4c-0.2-0.5-0.3-0.8-0.3-0.9h64.6s-0.1 0.2-0.2 0.5c0 0.1 0 0.1-0.1 0.2-0.1 0.3-0.3 0.7-0.4 1.1 0 0.1 0 0.2-0.1 0.3 0 0.1-0.1 0.2-0.1 0.4v0.2c-0.1 0.3-0.1 0.6-0.1 0.9 0 0.4 0 0.8 0.1 1.2 0 0.1 0.1 0.2 0.1 0.3v0.9c0 0.1 0 0.2-0.1 0.3l-0.1 0.1c-0.4 0.2 1.4 2.9 1.4 2.9s0 0 0 0c0.2 0.2 1.4 1.9-1 3.8-1 0.8-1.2 1.7-1 2.5 0 0.2 0.1 0.5 0.2 0.7 0.1 0.1 0.1 0.3 0.2 0.4 0.2 0.3 0.4 0.6 0.5 0.7l0.1 0.1s0 0 0 0 0.1 0.1 0.3 0.2c0.1 0.1 0.2 0.2 0.3 0.4 0.5 0.7 1.1 1.9-0.2 3.1-0.3 0.3-0.6 0.5-1 0.7-0.3 0.2-0.5 0.4-0.7 0.6l-0.1 0.1c-1 1.1-0.2 2.4 0.7 3.2 0.7 0.6 1.4 1.1 1.4 1.1s0 0 0 0v0.1c0.2 0.2 0.7 0.9 0.5 1.9 0 0.1-0.1 0.3-0.2 0.4 0 0.1-0.1 0.2-0.2 0.3-0.3 0.5-0.8 0.9-1.6 1.4-2 1.7-1.3 3-0.4 4z" fill="url(#y)"/>
			<g opacity=".33">
				<path d="m117.3 495.4s4-0.4 9.9-0.9c3-0.2 6.5-0.5 10.2-0.8s7.7-0.5 11.7-0.8c4-0.2 8-0.5 11.7-0.7s7.2-0.4 10.2-0.5c6-0.3 10-0.4 10-0.4s-4 0.4-9.9 0.9c-3 0.2-6.5 0.5-10.2 0.8s-7.7 0.5-11.7 0.8c-4 0.2-8 0.5-11.7 0.7s-7.2 0.4-10.2 0.5c-6 0.2-10 0.4-10 0.4z" fill="#6D6E71"/>
			</g>
			<linearGradient id="z" x1="148.71" x2="148.71" y1="479.28" y2="484.84" gradientUnits="userSpaceOnUse">
				<stop stop-color="#231F20" offset="0"/>
				<stop stop-color="#808285" offset=".075269"/>
				<stop stop-color="#6D6E71" offset=".1774"/>
				<stop stop-color="#939598" offset=".2151"/>
				<stop stop-color="#939598" offset=".3065"/>
				<stop stop-color="#808285" offset=".5215"/>
				<stop stop-color="#939598" offset=".7204"/>
				<stop stop-color="#939598" offset=".8387"/>
				<stop stop-color="#6D6E71" offset=".8871"/>
				<stop stop-color="#58595B" offset=".9516"/>
				<stop stop-color="#231F20" offset="1"/>
			</linearGradient>
			<path d="m181 479.4c-0.3 0.6-1.4 3.2-0.8 4.9v0.3h-62.7c-0.3-0.5-0.5-1.2-0.5-1.2 0.7-0.8-0.7-4.2-0.7-4.2h64.7v0.2z" fill="url(#z)"/>
			<path d="m120.9 529.8c0.8 0.7 57.1-0.4 59.4-2.9" fill="none" opacity=".33" stroke="#6D6E71" stroke-miterlimit="10" stroke-width=".8233"/>
			<linearGradient id="aa" x1="116.42" x2="181.93" y1="508.38" y2="508.38" gradientUnits="userSpaceOnUse">
				<stop stop-color="#717369" offset="0"/>
				<stop stop-color="#918D90" offset=".086022"/>
				<stop stop-color="#72786D" offset=".172"/>
				<stop stop-color="#434747" offset=".2688"/>
				<stop stop-color="#898989" offset=".3817"/>
				<stop stop-color="#EBE8E4" offset=".5108"/>
				<stop stop-color="#C1C1C2" offset=".7312"/>
				<stop stop-color="#A69DA6" offset=".8387"/>
				<stop stop-color="#A2A39A" offset="1"/>
			</linearGradient>
			<path d="m179.4 514c0.7 0.7 1.5 1.2 1.5 1.2s0 0 0.1 0.1c0.4 0.4 1.4 1.7-0.3 3.3-0.2 0.2-0.4 0.3-0.6 0.5-0.2 0.1-0.3 0.3-0.5 0.4-2.1 2.1 0.4 4.1 0.4 4.1s3.2 1.7-1.3 4.5l-8.9 7.7c-0.3 0.3-0.7 0.5-1.1 0.6-0.3 0.1-0.7 0.2-1 0.2l-19.2 0.8-18.8-0.2c-0.4 0-0.7-0.2-1-0.4-0.9-0.9-3.3-3.2-5.3-5-0.2-0.2-0.4-0.3-0.6-0.5-0.4-0.3-0.8-0.6-1.1-0.9-0.3-0.2-0.6-0.5-0.8-0.7-1.8-1.8-1.4-3.1-1.4-3.1 1.3-3.5-1.9-4.1-1.9-4.1-0.2-0.2-0.4-0.4-0.5-0.6-0.1-0.1-0.1-0.1-0.1-0.2s-0.1-0.1-0.1-0.2c-0.2-0.4-0.2-0.8-0.1-1.2 0.1-0.2 0.1-0.4 0.2-0.6 0.1-0.1 0.1-0.2 0.2-0.3 0 0 0-0.1 0.1-0.1 0.5-0.3 1-0.7 1.3-1l0.2-0.2c0.6-0.7 0.7-1.3 0.7-1.3s0.1-0.4-0.3-1.3c0-0.1-0.1-0.1-0.1-0.2 0 0 0-0.1-0.1-0.1-0.1-0.1-0.1-0.2-0.2-0.4-0.1-0.1-0.2-0.3-0.3-0.4-0.2-0.3-0.6-0.7-0.9-1.1-0.1-0.1-0.2-0.3-0.3-0.4-0.8-1.2-0.1-2.3 0.6-3l0.1-0.1c0.4-0.4 0.9-0.6 0.9-0.6s1.2-2.2-0.3-3.7l-0.4-0.4c-0.3-0.2-0.5-0.4-0.7-0.6-1.2-1.3-0.4-2.8-0.4-2.8 0.2-0.2 0.4-0.3 0.6-0.5l0.2-0.2c0.2-0.2 0.4-0.4 0.6-0.5 0.1-0.1 0.1-0.1 0.1-0.2 0.3-0.4 0.4-0.6 0.5-0.8s0-0.3 0-0.3 0.1-0.2 0.1-0.4c0.2-0.8 0.4-2.5-1.2-3.4-2.1-1.2 0-10.5 0-10.5-0.1-0.1-0.1-0.2-0.2-0.3 0 0 0-0.1-0.1-0.1 0-0.1 0-0.1-0.1-0.2v-0.1c-0.1-0.3-0.2-0.6-0.3-0.8v-0.2c0-0.1 0.1-0.1 0.1-0.2s0-0.1 0.1-0.2c0.1-0.6-0.1-1.5-0.3-2.2 0-0.1-0.1-0.2-0.1-0.3s-0.1-0.3-0.1-0.4c-0.2-0.5-0.3-0.8-0.3-0.9h64.6s-0.1 0.2-0.2 0.5c0 0.1 0 0.1-0.1 0.2-0.1 0.3-0.3 0.7-0.4 1.1 0 0.1 0 0.2-0.1 0.3 0 0.1-0.1 0.2-0.1 0.4v0.2c-0.1 0.3-0.1 0.6-0.1 0.9 0 0.4 0 0.8 0.1 1.2 0 0.1 0.1 0.2 0.1 0.3v0.1c0 0.2 0.1 0.5 0 0.8 0 0.1 0 0.2-0.1 0.3l-0.1 0.1c-0.4 0.2 1.4 2.9 1.4 2.9s0 0 0 0c0.2 0.2 1.4 1.9-1 3.8-1 0.8-1.2 1.7-1 2.5 0 0.2 0.1 0.5 0.2 0.7 0.1 0.1 0.1 0.3 0.2 0.4 0.2 0.3 0.4 0.6 0.5 0.7l0.1 0.1s0 0 0 0 0.1 0.1 0.3 0.2c0.1 0.1 0.2 0.2 0.3 0.4 0.5 0.7 1.1 1.9-0.2 3.1-0.3 0.3-0.6 0.5-1 0.7-0.3 0.2-0.5 0.4-0.7 0.6l-0.1 0.1c-1 1.1-0.2 2.4 0.7 3.2 0.7 0.6 1.4 1.1 1.4 1.1s0 0 0 0v0.1c0.2 0.2 0.9 1.2 0.3 2.3-0.1 0.1-0.1 0.2-0.2 0.3-0.3 0.5-0.8 0.9-1.6 1.4-2.1 1.7-1.4 3-0.5 4z" fill="url(#aa)" opacity=".4"/>
		<radialGradient id="ab" cx="316.39" cy="387.31" r="83.395" gradientUnits="userSpaceOnUse">
			<stop stop-color="#ED1C24" offset="0"/>
			<stop stop-color="#ED1C24" offset=".2447"/>
			<stop stop-color="#ED1C24" offset=".2849"/>
			<stop stop-color="#EB1C24" offset=".6592"/>
			<stop stop-color="#E41C26" offset=".794"/>
			<stop stop-color="#D91D28" offset=".8901"/>
			<stop stop-color="#C81E2B" offset=".9672"/>
			<stop stop-color="#BE1E2D" offset="1"/>
		</radialGradient>
		<path d="m388.5 354c-3.9-23.3-18.3-42.1-39.8-51.8-21.2-9.6-43.4-9.6-64.6 0-21.5 9.7-35.9 28.5-39.8 51.8-2.4 14.6-1.2 29.9 4.2 43.7 2.6 6.6 6.2 12.6 9.5 18.8 3.5 6.7 7.2 13.2 11 19.7 4.7 8 7.3 17.1 7.5 26.3 0 0 0.5 7.8 7.8 16.6l32.1 0.5 32.1-0.5c7.3-8.8 7.8-16.6 7.8-16.6 0.2-9.3 2.8-18.3 7.5-26.3 3.8-6.5 7.5-13.1 11-19.7 3.3-6.2 6.9-12.3 9.5-18.8 5.4-13.9 6.6-29.1 4.2-43.7z" fill="url(#ab)"/>
			<path d="m336.3 536.1s-0.2 0.1-0.4 0.4c-0.1 0-0.1 0.1-0.2 0.2-1.8 1.6-6.6 6.1-7.1 7.3-0.6 1.6-1.6 2.4-2.9 2.4l-9.8 0.5-9.8-0.5c-1.3 0-2.3-0.9-2.9-2.4-0.4-1.1-4.3-4.8-6.4-6.7-0.8-0.7-1.3-1.2-1.3-1.2l20.4-0.5 20.4 0.5z"/>
			<linearGradient id="ac" x1="315.91" x2="318.6" y1="495.36" y2="537.17" gradientUnits="userSpaceOnUse">
				<stop stop-color="#414042" offset="0"/>
				<stop stop-color="#918D90" offset=".1"/>
				<stop stop-color="#231F20" offset=".1946"/>
				<stop stop-color="#918D90" offset=".3"/>
				<stop stop-color="#231F20" offset=".4"/>
				<stop stop-color="#918D90" offset=".5"/>
				<stop stop-color="#231F20" offset=".6"/>
				<stop stop-color="#918D90" offset=".7"/>
				<stop stop-color="#635F61" offset=".8124"/>
				<stop stop-color="#353132" offset=".9374"/>
				<stop stop-color="#231F20" offset="1"/>
			</linearGradient>
			<path d="m346.6 514c0.7 0.7 1.5 1.2 1.5 1.2l0.1 0.1c0.4 0.4 1.4 1.7-0.3 3.3-0.2 0.2-0.4 0.3-0.6 0.5-0.2 0.1-0.3 0.3-0.5 0.4-2.1 2.1 0.4 4.1 0.4 4.1s3.2 1.7-1.3 4.5l-8.9 7.7c-0.3 0.3-0.7 0.5-1.1 0.6-0.1 0-0.1 0.1-0.2 0.2h-0.8l-19.2 0.8-18.8-0.2c-0.4 0-0.7-0.2-1-0.4-0.9-0.9-3.3-3.2-5.3-5-0.2-0.2-0.4-0.3-0.6-0.5-0.4-0.3-0.8-0.6-1.1-0.9-0.3-0.2-0.6-0.5-0.8-0.7-1.8-1.8-1.4-3.1-1.4-3.1 1.3-3.5-1.9-4.1-1.9-4.1-0.2-0.2-0.4-0.4-0.5-0.6-0.1-0.1-0.1-0.1-0.1-0.2s-0.1-0.1-0.1-0.2c-0.2-0.4-0.2-0.8-0.1-1.2 0.1-0.2 0.1-0.4 0.2-0.6 0.1-0.1 0.1-0.2 0.2-0.3 0 0 0-0.1 0.1-0.1 0.5-0.3 1-0.7 1.3-1l0.2-0.2c0.6-0.7 0.7-1.3 0.7-1.3s0.1-0.4-0.3-1.3c0-0.1-0.1-0.1-0.1-0.2 0 0 0-0.1-0.1-0.1-0.1-0.1-0.1-0.2-0.2-0.4-0.1-0.1-0.2-0.3-0.3-0.4-0.2-0.3-0.5-0.7-0.9-1.1-0.1-0.1-0.2-0.3-0.3-0.4-0.8-1.2-0.1-2.3 0.6-3l0.1-0.1c0.4-0.4 0.9-0.6 0.9-0.6s1.2-2.2-0.3-3.7l-0.4-0.4c-0.3-0.2-0.5-0.4-0.7-0.6-1.2-1.3-0.4-2.8-0.4-2.8 0.2-0.2 0.4-0.3 0.6-0.5l0.2-0.2c0.2-0.2 0.4-0.4 0.6-0.5 0.1-0.1 0.1-0.1 0.1-0.2 0.3-0.4 0.4-0.6 0.5-0.8s0-0.3 0-0.3 0.1-0.2 0.1-0.4c0.2-0.8 0.4-2.5-1.2-3.4-2.1-1.2 0-10.5 0-10.5-0.1-0.1-0.1-0.2-0.2-0.3 0 0 0-0.1-0.1-0.1 0-0.1 0-0.1-0.1-0.2v-0.1c-0.1-0.3-0.2-0.6-0.3-0.8v-0.2c0-0.1 0.1-0.1 0.1-0.2 0.2-0.5 0-1.6-0.3-2.4 0-0.1-0.1-0.2-0.1-0.3s-0.1-0.3-0.1-0.4c-0.2-0.5-0.3-0.8-0.3-0.9h64.6s-0.1 0.2-0.2 0.5c0 0.1 0 0.1-0.1 0.2-0.1 0.3-0.3 0.7-0.4 1.1 0 0.1 0 0.2-0.1 0.3 0 0.1-0.1 0.2-0.1 0.4v0.2c-0.1 0.3-0.1 0.6-0.1 0.9 0 0.4 0 0.8 0.1 1.2 0 0.1 0.1 0.2 0.1 0.3v0.9c0 0.1 0 0.2-0.1 0.3l-0.1 0.1c-0.4 0.2 1.4 2.9 1.4 2.9s0 0 0 0c0.2 0.2 1.4 1.9-1 3.8-1 0.8-1.2 1.7-1 2.5 0 0.2 0.1 0.5 0.2 0.7 0.1 0.1 0.1 0.3 0.2 0.4 0.2 0.3 0.4 0.6 0.5 0.7l0.1 0.1s0 0 0 0 0.1 0.1 0.3 0.2c0.1 0.1 0.2 0.2 0.3 0.4 0.5 0.7 1.1 1.9-0.2 3.1-0.3 0.3-0.6 0.5-1 0.7-0.3 0.2-0.5 0.4-0.7 0.6l-0.1 0.1c-1 1.1-0.2 2.4 0.7 3.2 0.7 0.6 1.4 1.1 1.4 1.1s0 0 0 0v0.1c0.2 0.2 0.7 0.9 0.5 1.9 0 0.1-0.1 0.3-0.2 0.4 0 0.1-0.1 0.2-0.2 0.3-0.3 0.5-0.8 0.9-1.6 1.4-1.9 1.7-1.3 3-0.4 4z" fill="url(#ac)"/>
			<g opacity=".33">
				<path d="m284.5 495.4s4-0.4 9.9-0.9c3-0.2 6.5-0.5 10.2-0.8s7.7-0.5 11.7-0.8c4-0.2 8-0.5 11.7-0.7s7.2-0.4 10.2-0.5c6-0.3 10-0.4 10-0.4s-4 0.4-9.9 0.9c-3 0.2-6.5 0.5-10.2 0.8s-7.7 0.5-11.7 0.8c-4 0.2-8 0.5-11.7 0.7s-7.2 0.4-10.2 0.5c-6 0.2-10 0.4-10 0.4z" fill="#6D6E71"/>
			</g>
			<linearGradient id="ad" x1="315.92" x2="315.92" y1="479.28" y2="484.84" gradientUnits="userSpaceOnUse">
				<stop stop-color="#231F20" offset="0"/>
				<stop stop-color="#808285" offset=".075269"/>
				<stop stop-color="#6D6E71" offset=".1774"/>
				<stop stop-color="#939598" offset=".2151"/>
				<stop stop-color="#939598" offset=".3065"/>
				<stop stop-color="#808285" offset=".5215"/>
				<stop stop-color="#939598" offset=".7204"/>
				<stop stop-color="#939598" offset=".8387"/>
				<stop stop-color="#6D6E71" offset=".8871"/>
				<stop stop-color="#58595B" offset=".9516"/>
				<stop stop-color="#231F20" offset="1"/>
			</linearGradient>
			<path d="m348.2 479.4c-0.3 0.6-1.4 3.2-0.8 4.9v0.3h-62.7c-0.3-0.5-0.5-1.2-0.5-1.2 0.7-0.8-0.7-4.2-0.7-4.2h64.6v0.2z" fill="url(#ad)"/>
			<path d="m288.1 529.8c0.8 0.7 57.1-0.4 59.4-2.9" fill="none" opacity=".33" stroke="#6D6E71" stroke-miterlimit="10" stroke-width=".8233"/>
			<linearGradient id="ae" x1="283.64" x2="349.15" y1="508.38" y2="508.38" gradientUnits="userSpaceOnUse">
				<stop stop-color="#717369" offset="0"/>
				<stop stop-color="#918D90" offset=".086022"/>
				<stop stop-color="#72786D" offset=".172"/>
				<stop stop-color="#434747" offset=".2688"/>
				<stop stop-color="#898989" offset=".3817"/>
				<stop stop-color="#EBE8E4" offset=".5108"/>
				<stop stop-color="#C1C1C2" offset=".7312"/>
				<stop stop-color="#A69DA6" offset=".8387"/>
				<stop stop-color="#A2A39A" offset="1"/>
			</linearGradient>
			<path d="m346.6 514c0.7 0.7 1.5 1.2 1.5 1.2s0 0 0.1 0.1c0.4 0.4 1.4 1.7-0.3 3.3-0.2 0.2-0.4 0.3-0.6 0.5-0.2 0.1-0.3 0.3-0.5 0.4-2.1 2.1 0.4 4.1 0.4 4.1s3.2 1.7-1.3 4.5l-8.9 7.7c-0.3 0.3-0.7 0.5-1.1 0.6-0.3 0.1-0.7 0.2-1 0.2l-19.2 0.8-18.8-0.2c-0.4 0-0.7-0.2-1-0.4-0.9-0.9-3.3-3.2-5.3-5-0.2-0.2-0.4-0.3-0.6-0.5-0.4-0.3-0.8-0.6-1.1-0.9-0.3-0.2-0.6-0.5-0.8-0.7-1.8-1.8-1.4-3.1-1.4-3.1 1.3-3.5-1.9-4.1-1.9-4.1-0.2-0.2-0.4-0.4-0.5-0.6-0.1-0.1-0.1-0.1-0.1-0.2s-0.1-0.1-0.1-0.2c-0.2-0.4-0.2-0.8-0.1-1.2 0.1-0.2 0.1-0.4 0.2-0.6 0.1-0.1 0.1-0.2 0.2-0.3 0 0 0-0.1 0.1-0.1 0.5-0.3 1-0.7 1.3-1l0.2-0.2c0.6-0.7 0.7-1.3 0.7-1.3s0.1-0.4-0.3-1.3c0-0.1-0.1-0.1-0.1-0.2 0 0 0-0.1-0.1-0.1-0.1-0.1-0.1-0.2-0.2-0.4-0.1-0.1-0.2-0.3-0.3-0.4-0.2-0.3-0.6-0.7-0.9-1.1-0.1-0.1-0.2-0.3-0.3-0.4-0.8-1.2-0.1-2.3 0.6-3l0.1-0.1c0.4-0.4 0.9-0.6 0.9-0.6s1.2-2.2-0.3-3.7l-0.4-0.4c-0.3-0.2-0.5-0.4-0.7-0.6-1.2-1.3-0.4-2.8-0.4-2.8 0.2-0.2 0.4-0.3 0.6-0.5l0.2-0.2c0.2-0.2 0.4-0.4 0.6-0.5 0.1-0.1 0.1-0.1 0.1-0.2 0.3-0.4 0.4-0.6 0.5-0.8s0-0.3 0-0.3 0.1-0.2 0.1-0.4c0.2-0.8 0.4-2.5-1.2-3.4-2.1-1.2 0-10.5 0-10.5-0.1-0.1-0.1-0.2-0.2-0.3 0 0 0-0.1-0.1-0.1 0-0.1 0-0.1-0.1-0.2v-0.1c-0.1-0.3-0.2-0.6-0.3-0.8v-0.2c0-0.1 0.1-0.1 0.1-0.2s0-0.1 0.1-0.2c0.1-0.6-0.1-1.5-0.3-2.2 0-0.1-0.1-0.2-0.1-0.3s-0.1-0.3-0.1-0.4c-0.2-0.5-0.3-0.8-0.3-0.9h64.6s-0.1 0.2-0.2 0.5c0 0.1 0 0.1-0.1 0.2-0.1 0.3-0.3 0.7-0.4 1.1 0 0.1 0 0.2-0.1 0.3 0 0.1-0.1 0.2-0.1 0.4v0.2c-0.1 0.3-0.1 0.6-0.1 0.9 0 0.4 0 0.8 0.1 1.2 0 0.1 0.1 0.2 0.1 0.3v0.1c0 0.2 0.1 0.5 0 0.8 0 0.1 0 0.2-0.1 0.3l-0.1 0.1c-0.4 0.2 1.4 2.9 1.4 2.9s0 0 0 0c0.2 0.2 1.4 1.9-1 3.8-1 0.8-1.2 1.7-1 2.5 0 0.2 0.1 0.5 0.2 0.7 0.1 0.1 0.1 0.3 0.2 0.4 0.2 0.3 0.4 0.6 0.5 0.7l0.1 0.1s0 0 0 0 0.1 0.1 0.3 0.2c0.1 0.1 0.2 0.2 0.3 0.4 0.5 0.7 1.1 1.9-0.2 3.1-0.3 0.3-0.6 0.5-1 0.7-0.3 0.2-0.5 0.4-0.7 0.6l-0.1 0.1c-1 1.1-0.2 2.4 0.7 3.2 0.7 0.6 1.4 1.1 1.4 1.1s0 0 0 0v0.1c0.2 0.2 0.9 1.2 0.3 2.3-0.1 0.1-0.1 0.2-0.2 0.3-0.3 0.5-0.8 0.9-1.6 1.4-2 1.7-1.4 3-0.5 4z" fill="url(#ae)" opacity=".4"/>
			<radialGradient id="af" cx="486.18" cy="389.91" r="106.73" fx="486.51" fy="368.97" gradientTransform="matrix(.029264 -.9996 .8228 .024088 151.14 866.49)" gradientUnits="userSpaceOnUse">
			<stop stop-color="#FFF251" offset="0"/>
			<stop stop-color="#FFF24F" offset=".1337"/>
			<stop stop-color="#FFF248" offset=".1819"/>
			<stop stop-color="#FFF23D" offset=".2162"/>
			<stop stop-color="#FFF22C" offset=".2439"/>
			<stop stop-color="#FFF216" offset=".2674"/>
			<stop stop-color="#FFF200" offset=".2849"/>
			<stop stop-color="#FFF002" offset=".6345"/>
			<stop stop-color="#FEE908" offset=".7605"/>
			<stop stop-color="#FEDE14" offset=".8502"/>
			<stop stop-color="#FDCD24" offset=".9228"/>
			<stop stop-color="#FBB739" offset=".9842"/>
			<stop stop-color="#FBB040" offset="1"/>
		</radialGradient>
		<path d="m555.7 354c-3.9-23.3-18.3-42.1-39.8-51.8-21.2-9.6-43.4-9.6-64.6 0-21.5 9.7-35.9 28.5-39.8 51.8-2.4 14.6-1.2 29.9 4.2 43.7 2.6 6.6 6.2 12.6 9.5 18.8 3.5 6.7 7.2 13.2 11 19.7 4.7 8 7.3 17.1 7.5 26.3 0 0 0.5 7.8 7.8 16.6l32.1 0.5 32.1-0.5c7.3-8.8 7.8-16.6 7.8-16.6 0.2-9.3 2.8-18.3 7.5-26.3 3.8-6.5 7.5-13.1 11-19.7 3.3-6.2 6.9-12.3 9.5-18.8 5.5-13.9 6.7-29.1 4.2-43.7z" fill="url(#af)"/>
			<path d="m503.6 536.1s-0.2 0.1-0.4 0.4c-0.1 0-0.1 0.1-0.2 0.2-1.8 1.6-6.6 6.1-7.1 7.3-0.6 1.6-1.6 2.4-2.9 2.4l-9.8 0.5-9.8-0.5c-1.3 0-2.3-0.9-2.9-2.4-0.4-1.1-4.3-4.8-6.4-6.7-0.8-0.7-1.3-1.2-1.3-1.2l20.4-0.5 20.4 0.5z"/>
			<linearGradient id="q" x1="483.12" x2="485.82" y1="495.36" y2="537.17" gradientUnits="userSpaceOnUse">
				<stop stop-color="#414042" offset="0"/>
				<stop stop-color="#918D90" offset=".1"/>
				<stop stop-color="#231F20" offset=".1946"/>
				<stop stop-color="#918D90" offset=".3"/>
				<stop stop-color="#231F20" offset=".4"/>
				<stop stop-color="#918D90" offset=".5"/>
				<stop stop-color="#231F20" offset=".6"/>
				<stop stop-color="#918D90" offset=".7"/>
				<stop stop-color="#635F61" offset=".8124"/>
				<stop stop-color="#353132" offset=".9374"/>
				<stop stop-color="#231F20" offset="1"/>
			</linearGradient>
			<path d="m513.8 514c0.7 0.7 1.5 1.2 1.5 1.2l0.1 0.1c0.4 0.4 1.4 1.7-0.3 3.3-0.2 0.2-0.4 0.3-0.6 0.5-0.2 0.1-0.3 0.3-0.5 0.4-2.1 2.1 0.4 4.1 0.4 4.1s3.2 1.7-1.3 4.5l-8.9 7.7c-0.3 0.3-0.7 0.5-1.1 0.6-0.1 0-0.1 0.1-0.2 0.2h-0.8l-19.2 0.8-18.8-0.2c-0.4 0-0.7-0.2-1-0.4-0.9-0.9-3.3-3.2-5.3-5-0.2-0.2-0.4-0.3-0.6-0.5-0.4-0.3-0.8-0.6-1.1-0.9-0.3-0.2-0.6-0.5-0.8-0.7-1.8-1.8-1.4-3.1-1.4-3.1 1.3-3.5-1.9-4.1-1.9-4.1-0.2-0.2-0.4-0.4-0.5-0.6-0.1-0.1-0.1-0.1-0.1-0.2s-0.1-0.1-0.1-0.2c-0.2-0.4-0.2-0.8-0.1-1.2 0.1-0.2 0.1-0.4 0.2-0.6 0.1-0.1 0.1-0.2 0.2-0.3 0 0 0-0.1 0.1-0.1 0.5-0.3 1-0.7 1.3-1l0.2-0.2c0.6-0.7 0.7-1.3 0.7-1.3s0.1-0.4-0.3-1.3c0-0.1-0.1-0.1-0.1-0.2 0 0 0-0.1-0.1-0.1-0.1-0.1-0.1-0.2-0.2-0.4-0.1-0.1-0.2-0.3-0.3-0.4-0.2-0.3-0.5-0.7-0.9-1.1-0.1-0.1-0.2-0.3-0.3-0.4-0.8-1.2-0.1-2.3 0.6-3l0.1-0.1c0.4-0.4 0.9-0.6 0.9-0.6s1.2-2.2-0.3-3.7l-0.4-0.4c-0.3-0.2-0.5-0.4-0.7-0.6-1.2-1.3-0.4-2.8-0.4-2.8 0.2-0.2 0.4-0.3 0.6-0.5l0.2-0.2c0.2-0.2 0.4-0.4 0.6-0.5 0.1-0.1 0.1-0.1 0.1-0.2 0.3-0.4 0.4-0.6 0.5-0.8s0-0.3 0-0.3 0.1-0.2 0.1-0.4c0.2-0.8 0.4-2.5-1.2-3.4-2.1-1.2 0-10.5 0-10.5-0.1-0.1-0.1-0.2-0.2-0.3 0 0 0-0.1-0.1-0.1 0-0.1 0-0.1-0.1-0.2v-0.1c-0.1-0.3-0.2-0.6-0.3-0.8v-0.2c0-0.1 0.1-0.1 0.1-0.2 0.2-0.5 0-1.6-0.3-2.4 0-0.1-0.1-0.2-0.1-0.3s-0.1-0.3-0.1-0.4c-0.2-0.5-0.3-0.8-0.3-0.9h64.6s-0.1 0.2-0.2 0.5c0 0.1 0 0.1-0.1 0.2-0.1 0.3-0.3 0.7-0.4 1.1 0 0.1 0 0.2-0.1 0.3 0 0.1-0.1 0.2-0.1 0.4v0.2c-0.1 0.3-0.1 0.6-0.1 0.9 0 0.4 0 0.8 0.1 1.2 0 0.1 0.1 0.2 0.1 0.3v0.9c0 0.1 0 0.2-0.1 0.3l-0.1 0.1c-0.4 0.2 1.4 2.9 1.4 2.9s0 0 0 0c0.2 0.2 1.4 1.9-1 3.8-1 0.8-1.2 1.7-1 2.5 0 0.2 0.1 0.5 0.2 0.7 0.1 0.1 0.1 0.3 0.2 0.4 0.2 0.3 0.4 0.6 0.5 0.7l0.1 0.1s0 0 0 0 0.1 0.1 0.3 0.2c0.1 0.1 0.2 0.2 0.3 0.4 0.5 0.7 1.1 1.9-0.2 3.1-0.3 0.3-0.6 0.5-1 0.7-0.3 0.2-0.5 0.4-0.7 0.6l-0.1 0.1c-1 1.1-0.2 2.4 0.7 3.2 0.7 0.6 1.4 1.1 1.4 1.1s0 0 0 0v0.1c0.2 0.2 0.7 0.9 0.5 1.9 0 0.1-0.1 0.3-0.2 0.4 0 0.1-0.1 0.2-0.2 0.3-0.3 0.5-0.8 0.9-1.6 1.4-1.9 1.7-1.3 3-0.4 4z" fill="url(#q)"/>
			<g opacity=".33">
				<path d="m451.8 495.4s4-0.4 9.9-0.9c3-0.2 6.5-0.5 10.2-0.8s7.7-0.5 11.7-0.8c4-0.2 8-0.5 11.7-0.7s7.2-0.4 10.2-0.5c6-0.3 10-0.4 10-0.4s-4 0.4-9.9 0.9c-3 0.2-6.5 0.5-10.2 0.8s-7.7 0.5-11.7 0.8c-4 0.2-8 0.5-11.7 0.7s-7.2 0.4-10.2 0.5c-6.1 0.2-10 0.4-10 0.4z" fill="#6D6E71"/>
			</g>
			<linearGradient id="r" x1="483.14" x2="483.14" y1="479.28" y2="484.84" gradientUnits="userSpaceOnUse">
				<stop stop-color="#231F20" offset="0"/>
				<stop stop-color="#808285" offset=".075269"/>
				<stop stop-color="#6D6E71" offset=".1774"/>
				<stop stop-color="#939598" offset=".2151"/>
				<stop stop-color="#939598" offset=".3065"/>
				<stop stop-color="#808285" offset=".5215"/>
				<stop stop-color="#939598" offset=".7204"/>
				<stop stop-color="#939598" offset=".8387"/>
				<stop stop-color="#6D6E71" offset=".8871"/>
				<stop stop-color="#58595B" offset=".9516"/>
				<stop stop-color="#231F20" offset="1"/>
			</linearGradient>
			<path d="m515.4 479.4c-0.3 0.6-1.4 3.2-0.8 4.9v0.3h-62.6c-0.3-0.5-0.5-1.2-0.5-1.2 0.7-0.8-0.7-4.2-0.7-4.2h64.6v0.2z" fill="url(#r)"/>
			<path d="m455.4 529.8c0.8 0.7 57.1-0.4 59.4-2.9" fill="none" opacity=".33" stroke="#6D6E71" stroke-miterlimit="10" stroke-width=".8233"/>
			<linearGradient id="s" x1="450.85" x2="516.36" y1="508.38" y2="508.38" gradientUnits="userSpaceOnUse">
				<stop stop-color="#717369" offset="0"/>
				<stop stop-color="#918D90" offset=".086022"/>
				<stop stop-color="#72786D" offset=".172"/>
				<stop stop-color="#434747" offset=".2688"/>
				<stop stop-color="#898989" offset=".3817"/>
				<stop stop-color="#EBE8E4" offset=".5108"/>
				<stop stop-color="#C1C1C2" offset=".7312"/>
				<stop stop-color="#A69DA6" offset=".8387"/>
				<stop stop-color="#A2A39A" offset="1"/>
			</linearGradient>
			<path d="m513.8 514c0.7 0.7 1.5 1.2 1.5 1.2s0 0 0.1 0.1c0.4 0.4 1.4 1.7-0.3 3.3-0.2 0.2-0.4 0.3-0.6 0.5-0.2 0.1-0.3 0.3-0.5 0.4-2.1 2.1 0.4 4.1 0.4 4.1s3.2 1.7-1.3 4.5l-8.9 7.7c-0.3 0.3-0.7 0.5-1.1 0.6-0.3 0.1-0.7 0.2-1 0.2l-19.2 0.8-18.8-0.2c-0.4 0-0.7-0.2-1-0.4-0.9-0.9-3.3-3.2-5.3-5-0.2-0.2-0.4-0.3-0.6-0.5-0.4-0.3-0.8-0.6-1.1-0.9-0.3-0.2-0.6-0.5-0.8-0.7-1.8-1.8-1.4-3.1-1.4-3.1 1.3-3.5-1.9-4.1-1.9-4.1-0.2-0.2-0.4-0.4-0.5-0.6-0.1-0.1-0.1-0.1-0.1-0.2s-0.1-0.1-0.1-0.2c-0.2-0.4-0.2-0.8-0.1-1.2 0.1-0.2 0.1-0.4 0.2-0.6 0.1-0.1 0.1-0.2 0.2-0.3 0 0 0-0.1 0.1-0.1 0.5-0.3 1-0.7 1.3-1l0.2-0.2c0.6-0.7 0.7-1.3 0.7-1.3s0.1-0.4-0.3-1.3c0-0.1-0.1-0.1-0.1-0.2 0 0 0-0.1-0.1-0.1-0.1-0.1-0.1-0.2-0.2-0.4-0.1-0.1-0.2-0.3-0.3-0.4-0.2-0.3-0.6-0.7-0.9-1.1-0.1-0.1-0.2-0.3-0.3-0.4-0.8-1.2-0.1-2.3 0.6-3l0.1-0.1c0.4-0.4 0.9-0.6 0.9-0.6s1.2-2.2-0.3-3.7l-0.4-0.4c-0.3-0.2-0.5-0.4-0.7-0.6-1.2-1.3-0.4-2.8-0.4-2.8 0.2-0.2 0.4-0.3 0.6-0.5l0.2-0.2c0.2-0.2 0.4-0.4 0.6-0.5 0.1-0.1 0.1-0.1 0.1-0.2 0.3-0.4 0.4-0.6 0.5-0.8s0-0.3 0-0.3 0.1-0.2 0.1-0.4c0.2-0.8 0.4-2.5-1.2-3.4-2.1-1.2 0-10.5 0-10.5-0.1-0.1-0.1-0.2-0.2-0.3 0 0 0-0.1-0.1-0.1 0-0.1 0-0.1-0.1-0.2v-0.1c-0.1-0.3-0.2-0.6-0.3-0.8v-0.2c0-0.1 0.1-0.1 0.1-0.2s0-0.1 0.1-0.2c0.1-0.6-0.1-1.5-0.3-2.2 0-0.1-0.1-0.2-0.1-0.3s-0.1-0.3-0.1-0.4c-0.2-0.5-0.3-0.8-0.3-0.9h64.6s-0.1 0.2-0.2 0.5c0 0.1 0 0.1-0.1 0.2-0.1 0.3-0.3 0.7-0.4 1.1 0 0.1 0 0.2-0.1 0.3 0 0.1-0.1 0.2-0.1 0.4v0.2c-0.1 0.3-0.1 0.6-0.1 0.9 0 0.4 0 0.8 0.1 1.2 0 0.1 0.1 0.2 0.1 0.3v0.1c0 0.2 0.1 0.5 0 0.8 0 0.1 0 0.2-0.1 0.3l-0.1 0.1c-0.4 0.2 1.4 2.9 1.4 2.9s0 0 0 0c0.2 0.2 1.4 1.9-1 3.8-1 0.8-1.2 1.7-1 2.5 0 0.2 0.1 0.5 0.2 0.7 0.1 0.1 0.1 0.3 0.2 0.4 0.2 0.3 0.4 0.6 0.5 0.7l0.1 0.1s0 0 0 0 0.1 0.1 0.3 0.2c0.1 0.1 0.2 0.2 0.3 0.4 0.5 0.7 1.1 1.9-0.2 3.1-0.3 0.3-0.6 0.5-1 0.7-0.3 0.2-0.5 0.4-0.7 0.6l-0.1 0.1c-1 1.1-0.2 2.4 0.7 3.2 0.7 0.6 1.4 1.1 1.4 1.1s0 0 0 0v0.1c0.2 0.2 0.9 1.2 0.3 2.3-0.1 0.1-0.1 0.2-0.2 0.3-0.3 0.5-0.8 0.9-1.6 1.4-2 1.7-1.4 3-0.5 4z" fill="url(#s)" opacity=".4"/>
			<radialGradient id="t" cx="653.39" cy="389.91" r="106.73" fx="653.72" fy="368.97" gradientTransform="matrix(.029264 -.9996 .8228 .024088 313.46 1033.6)" gradientUnits="userSpaceOnUse">
			<stop stop-color="#27B1E1" offset="0"/>
			<stop stop-color="#27AFE1" offset=".2187"/>
			<stop stop-color="#27AAE1" offset=".2849"/>
			<stop stop-color="#27A8DF" offset=".5873"/>
			<stop stop-color="#27A1D9" offset=".6962"/>
			<stop stop-color="#2795CE" offset=".7738"/>
			<stop stop-color="#2785BE" offset=".8366"/>
			<stop stop-color="#276FAA" offset=".8904"/>
			<stop stop-color="#265390" offset=".938"/>
			<stop stop-color="#263473" offset=".9799"/>
			<stop stop-color="#262262" offset="1"/>
		</radialGradient>
		<path d="m722.9 354c-3.9-23.3-18.3-42.1-39.8-51.8-21.2-9.6-43.4-9.6-64.6 0-21.5 9.7-35.9 28.5-39.8 51.8-2.4 14.6-1.2 29.9 4.2 43.7 2.6 6.6 6.2 12.6 9.5 18.8 3.5 6.7 7.2 13.2 11 19.7 4.7 8 7.3 17.1 7.5 26.3 0 0 0.5 7.8 7.8 16.6l32.1 0.5 32.1-0.5c7.3-8.8 7.8-16.6 7.8-16.6 0.2-9.3 2.8-18.3 7.5-26.3 3.8-6.5 7.5-13.1 11-19.7 3.3-6.2 6.9-12.3 9.5-18.8 5.5-13.9 6.7-29.1 4.2-43.7z" fill="url(#t)"/>
			<path d="m670.8 536.1s-0.2 0.1-0.4 0.4c-0.1 0-0.1 0.1-0.2 0.2-1.8 1.6-6.6 6.1-7.1 7.3-0.6 1.6-1.6 2.4-2.9 2.4l-9.8 0.5-9.8-0.5c-1.3 0-2.3-0.9-2.9-2.4-0.4-1.1-4.3-4.8-6.4-6.7-0.8-0.7-1.3-1.2-1.3-1.2l20.4-0.5 20.4 0.5z"/>
			<linearGradient id="u" x1="650.33" x2="653.03" y1="495.36" y2="537.17" gradientUnits="userSpaceOnUse">
				<stop stop-color="#414042" offset="0"/>
				<stop stop-color="#918D90" offset=".1"/>
				<stop stop-color="#231F20" offset=".1946"/>
				<stop stop-color="#918D90" offset=".3"/>
				<stop stop-color="#231F20" offset=".4"/>
				<stop stop-color="#918D90" offset=".5"/>
				<stop stop-color="#231F20" offset=".6"/>
				<stop stop-color="#918D90" offset=".7"/>
				<stop stop-color="#635F61" offset=".8124"/>
				<stop stop-color="#353132" offset=".9374"/>
				<stop stop-color="#231F20" offset="1"/>
			</linearGradient>
			<path d="m681 514c0.7 0.7 1.5 1.2 1.5 1.2l0.1 0.1c0.4 0.4 1.4 1.7-0.3 3.3-0.2 0.2-0.4 0.3-0.6 0.5-0.2 0.1-0.3 0.3-0.5 0.4-2.1 2.1 0.4 4.1 0.4 4.1s3.2 1.7-1.3 4.5l-8.9 7.7c-0.3 0.3-0.7 0.5-1.1 0.6-0.1 0-0.1 0.1-0.2 0.2h-0.8l-19.2 0.8-18.8-0.2c-0.4 0-0.7-0.2-1-0.4-0.9-0.9-3.3-3.2-5.3-5-0.2-0.2-0.4-0.3-0.6-0.5-0.4-0.3-0.8-0.6-1.1-0.9-0.3-0.2-0.6-0.5-0.8-0.7-1.8-1.8-1.4-3.1-1.4-3.1 1.3-3.5-1.9-4.1-1.9-4.1-0.2-0.2-0.4-0.4-0.5-0.6-0.1-0.1-0.1-0.1-0.1-0.2s-0.1-0.1-0.1-0.2c-0.2-0.4-0.2-0.8-0.1-1.2 0.1-0.2 0.1-0.4 0.2-0.6 0.1-0.1 0.1-0.2 0.2-0.3 0 0 0-0.1 0.1-0.1 0.5-0.3 1-0.7 1.3-1l0.2-0.2c0.6-0.7 0.7-1.3 0.7-1.3s0.1-0.4-0.3-1.3c0-0.1-0.1-0.1-0.1-0.2 0 0 0-0.1-0.1-0.1-0.1-0.1-0.1-0.2-0.2-0.4-0.1-0.1-0.2-0.3-0.3-0.4-0.2-0.3-0.5-0.7-0.9-1.1-0.1-0.1-0.2-0.3-0.3-0.4-0.8-1.2-0.1-2.3 0.6-3l0.1-0.1c0.4-0.4 0.9-0.6 0.9-0.6s1.2-2.2-0.3-3.7l-0.4-0.4c-0.3-0.2-0.5-0.4-0.7-0.6-1.2-1.3-0.4-2.8-0.4-2.8 0.2-0.2 0.4-0.3 0.6-0.5l0.2-0.2c0.2-0.2 0.4-0.4 0.6-0.5 0.1-0.1 0.1-0.1 0.1-0.2 0.3-0.4 0.4-0.6 0.5-0.8s0-0.3 0-0.3 0.1-0.2 0.1-0.4c0.2-0.8 0.4-2.5-1.2-3.4-2.1-1.2 0-10.5 0-10.5-0.1-0.1-0.1-0.2-0.2-0.3 0 0 0-0.1-0.1-0.1 0-0.1 0-0.1-0.1-0.2v-0.1c-0.1-0.3-0.2-0.6-0.3-0.8v-0.2c0-0.1 0.1-0.1 0.1-0.2 0.2-0.5 0-1.6-0.3-2.4 0-0.1-0.1-0.2-0.1-0.3s-0.1-0.3-0.1-0.4c-0.2-0.5-0.3-0.8-0.3-0.9h64.6s-0.1 0.2-0.2 0.5c0 0.1 0 0.1-0.1 0.2-0.1 0.3-0.3 0.7-0.4 1.1 0 0.1 0 0.2-0.1 0.3 0 0.1-0.1 0.2-0.1 0.4v0.2c-0.1 0.3-0.1 0.6-0.1 0.9 0 0.4 0 0.8 0.1 1.2 0 0.1 0.1 0.2 0.1 0.3v0.9c0 0.1 0 0.2-0.1 0.3l-0.1 0.1c-0.4 0.2 1.4 2.9 1.4 2.9s0 0 0 0c0.2 0.2 1.4 1.9-1 3.8-1 0.8-1.2 1.7-1 2.5 0 0.2 0.1 0.5 0.2 0.7 0.1 0.1 0.1 0.3 0.2 0.4 0.2 0.3 0.4 0.6 0.5 0.7l0.1 0.1s0 0 0 0 0.1 0.1 0.3 0.2c0.1 0.1 0.2 0.2 0.3 0.4 0.5 0.7 1.1 1.9-0.2 3.1-0.3 0.3-0.6 0.5-1 0.7-0.3 0.2-0.5 0.4-0.7 0.6l-0.1 0.1c-1 1.1-0.2 2.4 0.7 3.2 0.7 0.6 1.4 1.1 1.4 1.1s0 0 0 0v0.1c0.2 0.2 0.7 0.9 0.5 1.9 0 0.1-0.1 0.3-0.2 0.4 0 0.1-0.1 0.2-0.2 0.3-0.3 0.5-0.8 0.9-1.6 1.4-1.9 1.7-1.3 3-0.4 4z" fill="url(#u)"/>
			<g opacity=".33">
				<path d="m619 495.4s4-0.4 9.9-0.9c3-0.2 6.5-0.5 10.2-0.8s7.7-0.5 11.7-0.8c4-0.2 8-0.5 11.7-0.7s7.2-0.4 10.2-0.5c6-0.3 10-0.4 10-0.4s-4 0.4-9.9 0.9c-3 0.2-6.5 0.5-10.2 0.8s-7.7 0.5-11.7 0.8c-4 0.2-8 0.5-11.7 0.7s-7.2 0.4-10.2 0.5c-6 0.2-10 0.4-10 0.4z" fill="#6D6E71"/>
			</g>
			<linearGradient id="v" x1="650.35" x2="650.35" y1="479.28" y2="484.84" gradientUnits="userSpaceOnUse">
				<stop stop-color="#231F20" offset="0"/>
				<stop stop-color="#808285" offset=".075269"/>
				<stop stop-color="#6D6E71" offset=".1774"/>
				<stop stop-color="#939598" offset=".2151"/>
				<stop stop-color="#939598" offset=".3065"/>
				<stop stop-color="#808285" offset=".5215"/>
				<stop stop-color="#939598" offset=".7204"/>
				<stop stop-color="#939598" offset=".8387"/>
				<stop stop-color="#6D6E71" offset=".8871"/>
				<stop stop-color="#58595B" offset=".9516"/>
				<stop stop-color="#231F20" offset="1"/>
			</linearGradient>
			<path d="m682.6 479.4c-0.3 0.6-1.4 3.2-0.8 4.9v0.3h-62.7c-0.3-0.5-0.5-1.2-0.5-1.2 0.7-0.8-0.7-4.2-0.7-4.2h64.6v0.2z" fill="url(#v)"/>
			<path d="m622.6 529.8c0.8 0.7 57.1-0.4 59.4-2.9" fill="none" opacity=".33" stroke="#6D6E71" stroke-miterlimit="10" stroke-width=".8233"/>
			<linearGradient id="w" x1="618.07" x2="683.58" y1="508.38" y2="508.38" gradientUnits="userSpaceOnUse">
				<stop stop-color="#717369" offset="0"/>
				<stop stop-color="#918D90" offset=".086022"/>
				<stop stop-color="#72786D" offset=".172"/>
				<stop stop-color="#434747" offset=".2688"/>
				<stop stop-color="#898989" offset=".3817"/>
				<stop stop-color="#EBE8E4" offset=".5108"/>
				<stop stop-color="#C1C1C2" offset=".7312"/>
				<stop stop-color="#A69DA6" offset=".8387"/>
				<stop stop-color="#A2A39A" offset="1"/>
			</linearGradient>
			<path d="m681 514c0.7 0.7 1.5 1.2 1.5 1.2s0 0 0.1 0.1c0.4 0.4 1.4 1.7-0.3 3.3-0.2 0.2-0.4 0.3-0.6 0.5-0.2 0.1-0.3 0.3-0.5 0.4-2.1 2.1 0.4 4.1 0.4 4.1s3.2 1.7-1.3 4.5l-8.9 7.7c-0.3 0.3-0.7 0.5-1.1 0.6-0.3 0.1-0.7 0.2-1 0.2l-19.2 0.8-18.8-0.2c-0.4 0-0.7-0.2-1-0.4-0.9-0.9-3.3-3.2-5.3-5-0.2-0.2-0.4-0.3-0.6-0.5-0.4-0.3-0.8-0.6-1.1-0.9-0.3-0.2-0.6-0.5-0.8-0.7-1.8-1.8-1.4-3.1-1.4-3.1 1.3-3.5-1.9-4.1-1.9-4.1-0.2-0.2-0.4-0.4-0.5-0.6-0.1-0.1-0.1-0.1-0.1-0.2s-0.1-0.1-0.1-0.2c-0.2-0.4-0.2-0.8-0.1-1.2 0.1-0.2 0.1-0.4 0.2-0.6 0.1-0.1 0.1-0.2 0.2-0.3 0 0 0-0.1 0.1-0.1 0.5-0.3 1-0.7 1.3-1l0.2-0.2c0.6-0.7 0.7-1.3 0.7-1.3s0.1-0.4-0.3-1.3c0-0.1-0.1-0.1-0.1-0.2 0 0 0-0.1-0.1-0.1-0.1-0.1-0.1-0.2-0.2-0.4-0.1-0.1-0.2-0.3-0.3-0.4-0.2-0.3-0.6-0.7-0.9-1.1-0.1-0.1-0.2-0.3-0.3-0.4-0.8-1.2-0.1-2.3 0.6-3l0.1-0.1c0.4-0.4 0.9-0.6 0.9-0.6s1.2-2.2-0.3-3.7l-0.4-0.4c-0.3-0.2-0.5-0.4-0.7-0.6-1.2-1.3-0.4-2.8-0.4-2.8 0.2-0.2 0.4-0.3 0.6-0.5l0.2-0.2c0.2-0.2 0.4-0.4 0.6-0.5 0.1-0.1 0.1-0.1 0.1-0.2 0.3-0.4 0.4-0.6 0.5-0.8s0-0.3 0-0.3 0.1-0.2 0.1-0.4c0.2-0.8 0.4-2.5-1.2-3.4-2.1-1.2 0-10.5 0-10.5-0.1-0.1-0.1-0.2-0.2-0.3 0 0 0-0.1-0.1-0.1 0-0.1 0-0.1-0.1-0.2v-0.1c-0.1-0.3-0.2-0.6-0.3-0.8v-0.2c0-0.1 0.1-0.1 0.1-0.2s0-0.1 0.1-0.2c0.1-0.6-0.1-1.5-0.3-2.2 0-0.1-0.1-0.2-0.1-0.3s-0.1-0.3-0.1-0.4c-0.2-0.5-0.3-0.8-0.3-0.9h64.6s-0.1 0.2-0.2 0.5c0 0.1 0 0.1-0.1 0.2-0.1 0.3-0.3 0.7-0.4 1.1 0 0.1 0 0.2-0.1 0.3 0 0.1-0.1 0.2-0.1 0.4v0.2c-0.1 0.3-0.1 0.6-0.1 0.9 0 0.4 0 0.8 0.1 1.2 0 0.1 0.1 0.2 0.1 0.3v0.1c0 0.2 0.1 0.5 0 0.8 0 0.1 0 0.2-0.1 0.3l-0.1 0.1c-0.4 0.2 1.4 2.9 1.4 2.9s0 0 0 0c0.2 0.2 1.4 1.9-1 3.8-1 0.8-1.2 1.7-1 2.5 0 0.2 0.1 0.5 0.2 0.7 0.1 0.1 0.1 0.3 0.2 0.4 0.2 0.3 0.4 0.6 0.5 0.7l0.1 0.1s0 0 0 0 0.1 0.1 0.3 0.2c0.1 0.1 0.2 0.2 0.3 0.4 0.5 0.7 1.1 1.9-0.2 3.1-0.3 0.3-0.6 0.5-1 0.7-0.3 0.2-0.5 0.4-0.7 0.6l-0.1 0.1c-1 1.1-0.2 2.4 0.7 3.2 0.7 0.6 1.4 1.1 1.4 1.1s0 0 0 0v0.1c0.2 0.2 0.9 1.2 0.3 2.3-0.1 0.1-0.1 0.2-0.2 0.3-0.3 0.5-0.8 0.9-1.6 1.4-2 1.7-1.4 3-0.5 4z" fill="url(#w)" opacity=".4"/>
</svg>
