<?xml version="1.0" encoding="UTF-8" standalone="no"?>
<svg
   xmlns:dc="http://purl.org/dc/elements/1.1/"
   xmlns:cc="http://creativecommons.org/ns#"
   xmlns:rdf="http://www.w3.org/1999/02/22-rdf-syntax-ns#"
   xmlns:svg="http://www.w3.org/2000/svg"
   xmlns="http://www.w3.org/2000/svg"
   xmlns:xlink="http://www.w3.org/1999/xlink"
   xmlns:sodipodi="http://sodipodi.sourceforge.net/DTD/sodipodi-0.dtd"
   xmlns:inkscape="http://www.inkscape.org/namespaces/inkscape"
   enable-background="new 0 0 800 800"
   version="1.1"
   viewBox="0 0 800 800"
   xml:space="preserve"
   id="svg5540"
   sodipodi:docname="Ampoules.svg"
   inkscape:version="0.92.1 r15371"><metadata
     id="metadata5546"><rdf:RDF><cc:Work
         rdf:about=""><dc:format>image/svg+xml</dc:format><dc:type
           rdf:resource="http://purl.org/dc/dcmitype/StillImage" /></cc:Work></rdf:RDF></metadata><defs
     id="defs5544"><linearGradient
       inkscape:collect="always"
       id="linearGradient5554"><stop
         style="stop-color:#e9ef11;stop-opacity:1;"
         offset="0"
         id="stop5550" /><stop
         style="stop-color:#e9ef11;stop-opacity:0;"
         offset="1"
         id="stop5552" /></linearGradient><radialGradient
       inkscape:collect="always"
       xlink:href="#linearGradient5554"
       id="radialGradient5556"
       cx="565.97015"
       cy="289.55225"
       fx="565.97015"
       fy="289.55225"
       r="82.388062"
       gradientTransform="matrix(1.3115941,0,0,1.9637681,-258.68136,-181.24032)"
       gradientUnits="userSpaceOnUse" /></defs><sodipodi:namedview
     pagecolor="#ffffff"
     bordercolor="#666666"
     borderopacity="1"
     objecttolerance="10"
     gridtolerance="10"
     guidetolerance="10"
     inkscape:pageopacity="0"
     inkscape:pageshadow="2"
     inkscape:window-width="1280"
     inkscape:window-height="960"
     id="namedview5542"
     showgrid="false"
     inkscape:zoom="0.8375"
     inkscape:cx="400"
     inkscape:cy="400"
     inkscape:window-x="0"
     inkscape:window-y="36"
     inkscape:window-maximized="1"
     inkscape:current-layer="svg5540" /><radialGradient
     id="x"
     cx="151.75"
     cy="389.91"
     r="106.73"
     fx="152.08"
     fy="368.97"
     gradientTransform="matrix(.029264 -.9996 .8228 .024088 -173.5 532.2)"
     gradientUnits="userSpaceOnUse"><stop
       stop-color="#fff"
       offset="0"
       id="stop5126" /><stop
       stop-color="#fff"
       offset=".2447"
       id="stop5128" /><stop
       stop-color="#fff"
       offset=".2849"
       id="stop5130" /><stop
       stop-color="#FDFDFD"
       offset=".5915"
       id="stop5132" /><stop
       stop-color="#F6F6F7"
       offset=".7019"
       id="stop5134" /><stop
       stop-color="#EBEBEB"
       offset=".7806"
       id="stop5136" /><stop
       stop-color="#DADADB"
       offset=".8442"
       id="stop5138" /><stop
       stop-color="#C4C5C6"
       offset=".8987"
       id="stop5140" /><stop
       stop-color="#A8AAAC"
       offset=".9469"
       id="stop5142" /><stop
       stop-color="#898B8E"
       offset=".9896"
       id="stop5144" /><stop
       stop-color="#808285"
       offset="1"
       id="stop5146" /></radialGradient><linearGradient
     id="y"
     x1="148.69"
     x2="151.39"
     y1="495.36"
     y2="537.17"
     gradientUnits="userSpaceOnUse"><stop
       stop-color="#414042"
       offset="0"
       id="stop5153" /><stop
       stop-color="#918D90"
       offset=".1"
       id="stop5155" /><stop
       stop-color="#231F20"
       offset=".1946"
       id="stop5157" /><stop
       stop-color="#918D90"
       offset=".3"
       id="stop5159" /><stop
       stop-color="#231F20"
       offset=".4"
       id="stop5161" /><stop
       stop-color="#918D90"
       offset=".5"
       id="stop5163" /><stop
       stop-color="#231F20"
       offset=".6"
       id="stop5165" /><stop
       stop-color="#918D90"
       offset=".7"
       id="stop5167" /><stop
       stop-color="#635F61"
       offset=".8124"
       id="stop5169" /><stop
       stop-color="#353132"
       offset=".9374"
       id="stop5171" /><stop
       stop-color="#231F20"
       offset="1"
       id="stop5173" /></linearGradient><linearGradient
     id="z"
     x1="148.71"
     x2="148.71"
     y1="479.28"
     y2="484.84"
     gradientUnits="userSpaceOnUse"><stop
       stop-color="#231F20"
       offset="0"
       id="stop5182" /><stop
       stop-color="#808285"
       offset=".075269"
       id="stop5184" /><stop
       stop-color="#6D6E71"
       offset=".1774"
       id="stop5186" /><stop
       stop-color="#939598"
       offset=".2151"
       id="stop5188" /><stop
       stop-color="#939598"
       offset=".3065"
       id="stop5190" /><stop
       stop-color="#808285"
       offset=".5215"
       id="stop5192" /><stop
       stop-color="#939598"
       offset=".7204"
       id="stop5194" /><stop
       stop-color="#939598"
       offset=".8387"
       id="stop5196" /><stop
       stop-color="#6D6E71"
       offset=".8871"
       id="stop5198" /><stop
       stop-color="#58595B"
       offset=".9516"
       id="stop5200" /><stop
       stop-color="#231F20"
       offset="1"
       id="stop5202" /></linearGradient><linearGradient
     id="aa"
     x1="116.42"
     x2="181.93"
     y1="508.38"
     y2="508.38"
     gradientUnits="userSpaceOnUse"><stop
       stop-color="#717369"
       offset="0"
       id="stop5209" /><stop
       stop-color="#918D90"
       offset=".086022"
       id="stop5211" /><stop
       stop-color="#72786D"
       offset=".172"
       id="stop5213" /><stop
       stop-color="#434747"
       offset=".2688"
       id="stop5215" /><stop
       stop-color="#898989"
       offset=".3817"
       id="stop5217" /><stop
       stop-color="#EBE8E4"
       offset=".5108"
       id="stop5219" /><stop
       stop-color="#C1C1C2"
       offset=".7312"
       id="stop5221" /><stop
       stop-color="#A69DA6"
       offset=".8387"
       id="stop5223" /><stop
       stop-color="#A2A39A"
       offset="1"
       id="stop5225" /></linearGradient><radialGradient
     id="ab"
     cx="316.39"
     cy="387.31"
     r="83.395"
     gradientUnits="userSpaceOnUse"><stop
       stop-color="#ED1C24"
       offset="0"
       id="stop5230" /><stop
       stop-color="#ED1C24"
       offset=".2447"
       id="stop5232" /><stop
       stop-color="#ED1C24"
       offset=".2849"
       id="stop5234" /><stop
       stop-color="#EB1C24"
       offset=".6592"
       id="stop5236" /><stop
       stop-color="#E41C26"
       offset=".794"
       id="stop5238" /><stop
       stop-color="#D91D28"
       offset=".8901"
       id="stop5240" /><stop
       stop-color="#C81E2B"
       offset=".9672"
       id="stop5242" /><stop
       stop-color="#BE1E2D"
       offset="1"
       id="stop5244" /></radialGradient><linearGradient
     id="ac"
     x1="315.91"
     x2="318.6"
     y1="495.36"
     y2="537.17"
     gradientUnits="userSpaceOnUse"><stop
       stop-color="#414042"
       offset="0"
       id="stop5251" /><stop
       stop-color="#918D90"
       offset=".1"
       id="stop5253" /><stop
       stop-color="#231F20"
       offset=".1946"
       id="stop5255" /><stop
       stop-color="#918D90"
       offset=".3"
       id="stop5257" /><stop
       stop-color="#231F20"
       offset=".4"
       id="stop5259" /><stop
       stop-color="#918D90"
       offset=".5"
       id="stop5261" /><stop
       stop-color="#231F20"
       offset=".6"
       id="stop5263" /><stop
       stop-color="#918D90"
       offset=".7"
       id="stop5265" /><stop
       stop-color="#635F61"
       offset=".8124"
       id="stop5267" /><stop
       stop-color="#353132"
       offset=".9374"
       id="stop5269" /><stop
       stop-color="#231F20"
       offset="1"
       id="stop5271" /></linearGradient><linearGradient
     id="ad"
     x1="315.92"
     x2="315.92"
     y1="479.28"
     y2="484.84"
     gradientUnits="userSpaceOnUse"><stop
       stop-color="#231F20"
       offset="0"
       id="stop5280" /><stop
       stop-color="#808285"
       offset=".075269"
       id="stop5282" /><stop
       stop-color="#6D6E71"
       offset=".1774"
       id="stop5284" /><stop
       stop-color="#939598"
       offset=".2151"
       id="stop5286" /><stop
       stop-color="#939598"
       offset=".3065"
       id="stop5288" /><stop
       stop-color="#808285"
       offset=".5215"
       id="stop5290" /><stop
       stop-color="#939598"
       offset=".7204"
       id="stop5292" /><stop
       stop-color="#939598"
       offset=".8387"
       id="stop5294" /><stop
       stop-color="#6D6E71"
       offset=".8871"
       id="stop5296" /><stop
       stop-color="#58595B"
       offset=".9516"
       id="stop5298" /><stop
       stop-color="#231F20"
       offset="1"
       id="stop5300" /></linearGradient><linearGradient
     id="ae"
     x1="283.64"
     x2="349.15"
     y1="508.38"
     y2="508.38"
     gradientUnits="userSpaceOnUse"><stop
       stop-color="#717369"
       offset="0"
       id="stop5307" /><stop
       stop-color="#918D90"
       offset=".086022"
       id="stop5309" /><stop
       stop-color="#72786D"
       offset=".172"
       id="stop5311" /><stop
       stop-color="#434747"
       offset=".2688"
       id="stop5313" /><stop
       stop-color="#898989"
       offset=".3817"
       id="stop5315" /><stop
       stop-color="#EBE8E4"
       offset=".5108"
       id="stop5317" /><stop
       stop-color="#C1C1C2"
       offset=".7312"
       id="stop5319" /><stop
       stop-color="#A69DA6"
       offset=".8387"
       id="stop5321" /><stop
       stop-color="#A2A39A"
       offset="1"
       id="stop5323" /></linearGradient><radialGradient
     id="af"
     cx="486.18"
     cy="389.91"
     r="106.73"
     fx="486.51"
     fy="368.97"
     gradientTransform="matrix(.029264 -.9996 .8228 .024088 151.14 866.49)"
     gradientUnits="userSpaceOnUse"><stop
       stop-color="#FFF251"
       offset="0"
       id="stop5328" /><stop
       stop-color="#FFF24F"
       offset=".1337"
       id="stop5330" /><stop
       stop-color="#FFF248"
       offset=".1819"
       id="stop5332" /><stop
       stop-color="#FFF23D"
       offset=".2162"
       id="stop5334" /><stop
       stop-color="#FFF22C"
       offset=".2439"
       id="stop5336" /><stop
       stop-color="#FFF216"
       offset=".2674"
       id="stop5338" /><stop
       stop-color="#FFF200"
       offset=".2849"
       id="stop5340" /><stop
       stop-color="#FFF002"
       offset=".6345"
       id="stop5342" /><stop
       stop-color="#FEE908"
       offset=".7605"
       id="stop5344" /><stop
       stop-color="#FEDE14"
       offset=".8502"
       id="stop5346" /><stop
       stop-color="#FDCD24"
       offset=".9228"
       id="stop5348" /><stop
       stop-color="#FBB739"
       offset=".9842"
       id="stop5350" /><stop
       stop-color="#FBB040"
       offset="1"
       id="stop5352" /></radialGradient><path
     d="m555.7 354c-3.9-23.3-18.3-42.1-39.8-51.8-21.2-9.6-43.4-9.6-64.6 0-21.5 9.7-35.9 28.5-39.8 51.8-2.4 14.6-1.2 29.9 4.2 43.7 2.6 6.6 6.2 12.6 9.5 18.8 3.5 6.7 7.2 13.2 11 19.7 4.7 8 7.3 17.1 7.5 26.3 0 0 0.5 7.8 7.8 16.6l32.1 0.5 32.1-0.5c7.3-8.8 7.8-16.6 7.8-16.6 0.2-9.3 2.8-18.3 7.5-26.3 3.8-6.5 7.5-13.1 11-19.7 3.3-6.2 6.9-12.3 9.5-18.8 5.5-13.9 6.7-29.1 4.2-43.7z"
     fill="url(#af)"
     id="path5355"
     inkscape:export-xdpi="96"
     inkscape:export-ydpi="96" /><path
     d="m503.6 536.1s-0.2 0.1-0.4 0.4c-0.1 0-0.1 0.1-0.2 0.2-1.8 1.6-6.6 6.1-7.1 7.3-0.6 1.6-1.6 2.4-2.9 2.4l-9.8 0.5-9.8-0.5c-1.3 0-2.3-0.9-2.9-2.4-0.4-1.1-4.3-4.8-6.4-6.7-0.8-0.7-1.3-1.2-1.3-1.2l20.4-0.5 20.4 0.5z"
     id="path5357"
     inkscape:export-xdpi="96"
     inkscape:export-ydpi="96" /><linearGradient
     id="q"
     x1="483.12"
     x2="485.82"
     y1="495.36"
     y2="537.17"
     gradientUnits="userSpaceOnUse"><stop
       stop-color="#414042"
       offset="0"
       id="stop5359" /><stop
       stop-color="#918D90"
       offset=".1"
       id="stop5361" /><stop
       stop-color="#231F20"
       offset=".1946"
       id="stop5363" /><stop
       stop-color="#918D90"
       offset=".3"
       id="stop5365" /><stop
       stop-color="#231F20"
       offset=".4"
       id="stop5367" /><stop
       stop-color="#918D90"
       offset=".5"
       id="stop5369" /><stop
       stop-color="#231F20"
       offset=".6"
       id="stop5371" /><stop
       stop-color="#918D90"
       offset=".7"
       id="stop5373" /><stop
       stop-color="#635F61"
       offset=".8124"
       id="stop5375" /><stop
       stop-color="#353132"
       offset=".9374"
       id="stop5377" /><stop
       stop-color="#231F20"
       offset="1"
       id="stop5379" /></linearGradient><path
     d="m513.8 514c0.7 0.7 1.5 1.2 1.5 1.2l0.1 0.1c0.4 0.4 1.4 1.7-0.3 3.3-0.2 0.2-0.4 0.3-0.6 0.5-0.2 0.1-0.3 0.3-0.5 0.4-2.1 2.1 0.4 4.1 0.4 4.1s3.2 1.7-1.3 4.5l-8.9 7.7c-0.3 0.3-0.7 0.5-1.1 0.6-0.1 0-0.1 0.1-0.2 0.2h-0.8l-19.2 0.8-18.8-0.2c-0.4 0-0.7-0.2-1-0.4-0.9-0.9-3.3-3.2-5.3-5-0.2-0.2-0.4-0.3-0.6-0.5-0.4-0.3-0.8-0.6-1.1-0.9-0.3-0.2-0.6-0.5-0.8-0.7-1.8-1.8-1.4-3.1-1.4-3.1 1.3-3.5-1.9-4.1-1.9-4.1-0.2-0.2-0.4-0.4-0.5-0.6-0.1-0.1-0.1-0.1-0.1-0.2s-0.1-0.1-0.1-0.2c-0.2-0.4-0.2-0.8-0.1-1.2 0.1-0.2 0.1-0.4 0.2-0.6 0.1-0.1 0.1-0.2 0.2-0.3 0 0 0-0.1 0.1-0.1 0.5-0.3 1-0.7 1.3-1l0.2-0.2c0.6-0.7 0.7-1.3 0.7-1.3s0.1-0.4-0.3-1.3c0-0.1-0.1-0.1-0.1-0.2 0 0 0-0.1-0.1-0.1-0.1-0.1-0.1-0.2-0.2-0.4-0.1-0.1-0.2-0.3-0.3-0.4-0.2-0.3-0.5-0.7-0.9-1.1-0.1-0.1-0.2-0.3-0.3-0.4-0.8-1.2-0.1-2.3 0.6-3l0.1-0.1c0.4-0.4 0.9-0.6 0.9-0.6s1.2-2.2-0.3-3.7l-0.4-0.4c-0.3-0.2-0.5-0.4-0.7-0.6-1.2-1.3-0.4-2.8-0.4-2.8 0.2-0.2 0.4-0.3 0.6-0.5l0.2-0.2c0.2-0.2 0.4-0.4 0.6-0.5 0.1-0.1 0.1-0.1 0.1-0.2 0.3-0.4 0.4-0.6 0.5-0.8s0-0.3 0-0.3 0.1-0.2 0.1-0.4c0.2-0.8 0.4-2.5-1.2-3.4-2.1-1.2 0-10.5 0-10.5-0.1-0.1-0.1-0.2-0.2-0.3 0 0 0-0.1-0.1-0.1 0-0.1 0-0.1-0.1-0.2v-0.1c-0.1-0.3-0.2-0.6-0.3-0.8v-0.2c0-0.1 0.1-0.1 0.1-0.2 0.2-0.5 0-1.6-0.3-2.4 0-0.1-0.1-0.2-0.1-0.3s-0.1-0.3-0.1-0.4c-0.2-0.5-0.3-0.8-0.3-0.9h64.6s-0.1 0.2-0.2 0.5c0 0.1 0 0.1-0.1 0.2-0.1 0.3-0.3 0.7-0.4 1.1 0 0.1 0 0.2-0.1 0.3 0 0.1-0.1 0.2-0.1 0.4v0.2c-0.1 0.3-0.1 0.6-0.1 0.9 0 0.4 0 0.8 0.1 1.2 0 0.1 0.1 0.2 0.1 0.3v0.9c0 0.1 0 0.2-0.1 0.3l-0.1 0.1c-0.4 0.2 1.4 2.9 1.4 2.9s0 0 0 0c0.2 0.2 1.4 1.9-1 3.8-1 0.8-1.2 1.7-1 2.5 0 0.2 0.1 0.5 0.2 0.7 0.1 0.1 0.1 0.3 0.2 0.4 0.2 0.3 0.4 0.6 0.5 0.7l0.1 0.1s0 0 0 0 0.1 0.1 0.3 0.2c0.1 0.1 0.2 0.2 0.3 0.4 0.5 0.7 1.1 1.9-0.2 3.1-0.3 0.3-0.6 0.5-1 0.7-0.3 0.2-0.5 0.4-0.7 0.6l-0.1 0.1c-1 1.1-0.2 2.4 0.7 3.2 0.7 0.6 1.4 1.1 1.4 1.1s0 0 0 0v0.1c0.2 0.2 0.7 0.9 0.5 1.9 0 0.1-0.1 0.3-0.2 0.4 0 0.1-0.1 0.2-0.2 0.3-0.3 0.5-0.8 0.9-1.6 1.4-1.9 1.7-1.3 3-0.4 4z"
     fill="url(#q)"
     id="path5382"
     inkscape:export-xdpi="96"
     inkscape:export-ydpi="96" /><g
     opacity=".33"
     id="g5386"
     inkscape:export-xdpi="96"
     inkscape:export-ydpi="96"><path
       d="m451.8 495.4s4-0.4 9.9-0.9c3-0.2 6.5-0.5 10.2-0.8s7.7-0.5 11.7-0.8c4-0.2 8-0.5 11.7-0.7s7.2-0.4 10.2-0.5c6-0.3 10-0.4 10-0.4s-4 0.4-9.9 0.9c-3 0.2-6.5 0.5-10.2 0.8s-7.7 0.5-11.7 0.8c-4 0.2-8 0.5-11.7 0.7s-7.2 0.4-10.2 0.5c-6.1 0.2-10 0.4-10 0.4z"
       fill="#6D6E71"
       id="path5384" /></g><linearGradient
     id="r"
     x1="483.14"
     x2="483.14"
     y1="479.28"
     y2="484.84"
     gradientUnits="userSpaceOnUse"><stop
       stop-color="#231F20"
       offset="0"
       id="stop5388" /><stop
       stop-color="#808285"
       offset=".075269"
       id="stop5390" /><stop
       stop-color="#6D6E71"
       offset=".1774"
       id="stop5392" /><stop
       stop-color="#939598"
       offset=".2151"
       id="stop5394" /><stop
       stop-color="#939598"
       offset=".3065"
       id="stop5396" /><stop
       stop-color="#808285"
       offset=".5215"
       id="stop5398" /><stop
       stop-color="#939598"
       offset=".7204"
       id="stop5400" /><stop
       stop-color="#939598"
       offset=".8387"
       id="stop5402" /><stop
       stop-color="#6D6E71"
       offset=".8871"
       id="stop5404" /><stop
       stop-color="#58595B"
       offset=".9516"
       id="stop5406" /><stop
       stop-color="#231F20"
       offset="1"
       id="stop5408" /></linearGradient><path
     d="m515.4 479.4c-0.3 0.6-1.4 3.2-0.8 4.9v0.3h-62.6c-0.3-0.5-0.5-1.2-0.5-1.2 0.7-0.8-0.7-4.2-0.7-4.2h64.6v0.2z"
     fill="url(#r)"
     id="path5411"
     inkscape:export-xdpi="96"
     inkscape:export-ydpi="96" /><path
     d="m455.4 529.8c0.8 0.7 57.1-0.4 59.4-2.9"
     fill="none"
     opacity=".33"
     stroke="#6D6E71"
     stroke-miterlimit="10"
     stroke-width=".8233"
     id="path5413"
     inkscape:export-xdpi="96"
     inkscape:export-ydpi="96" /><linearGradient
     id="s"
     x1="450.85"
     x2="516.36"
     y1="508.38"
     y2="508.38"
     gradientUnits="userSpaceOnUse"><stop
       stop-color="#717369"
       offset="0"
       id="stop5415" /><stop
       stop-color="#918D90"
       offset=".086022"
       id="stop5417" /><stop
       stop-color="#72786D"
       offset=".172"
       id="stop5419" /><stop
       stop-color="#434747"
       offset=".2688"
       id="stop5421" /><stop
       stop-color="#898989"
       offset=".3817"
       id="stop5423" /><stop
       stop-color="#EBE8E4"
       offset=".5108"
       id="stop5425" /><stop
       stop-color="#C1C1C2"
       offset=".7312"
       id="stop5427" /><stop
       stop-color="#A69DA6"
       offset=".8387"
       id="stop5429" /><stop
       stop-color="#A2A39A"
       offset="1"
       id="stop5431" /></linearGradient><path
     d="m513.8 514c0.7 0.7 1.5 1.2 1.5 1.2s0 0 0.1 0.1c0.4 0.4 1.4 1.7-0.3 3.3-0.2 0.2-0.4 0.3-0.6 0.5-0.2 0.1-0.3 0.3-0.5 0.4-2.1 2.1 0.4 4.1 0.4 4.1s3.2 1.7-1.3 4.5l-8.9 7.7c-0.3 0.3-0.7 0.5-1.1 0.6-0.3 0.1-0.7 0.2-1 0.2l-19.2 0.8-18.8-0.2c-0.4 0-0.7-0.2-1-0.4-0.9-0.9-3.3-3.2-5.3-5-0.2-0.2-0.4-0.3-0.6-0.5-0.4-0.3-0.8-0.6-1.1-0.9-0.3-0.2-0.6-0.5-0.8-0.7-1.8-1.8-1.4-3.1-1.4-3.1 1.3-3.5-1.9-4.1-1.9-4.1-0.2-0.2-0.4-0.4-0.5-0.6-0.1-0.1-0.1-0.1-0.1-0.2s-0.1-0.1-0.1-0.2c-0.2-0.4-0.2-0.8-0.1-1.2 0.1-0.2 0.1-0.4 0.2-0.6 0.1-0.1 0.1-0.2 0.2-0.3 0 0 0-0.1 0.1-0.1 0.5-0.3 1-0.7 1.3-1l0.2-0.2c0.6-0.7 0.7-1.3 0.7-1.3s0.1-0.4-0.3-1.3c0-0.1-0.1-0.1-0.1-0.2 0 0 0-0.1-0.1-0.1-0.1-0.1-0.1-0.2-0.2-0.4-0.1-0.1-0.2-0.3-0.3-0.4-0.2-0.3-0.6-0.7-0.9-1.1-0.1-0.1-0.2-0.3-0.3-0.4-0.8-1.2-0.1-2.3 0.6-3l0.1-0.1c0.4-0.4 0.9-0.6 0.9-0.6s1.2-2.2-0.3-3.7l-0.4-0.4c-0.3-0.2-0.5-0.4-0.7-0.6-1.2-1.3-0.4-2.8-0.4-2.8 0.2-0.2 0.4-0.3 0.6-0.5l0.2-0.2c0.2-0.2 0.4-0.4 0.6-0.5 0.1-0.1 0.1-0.1 0.1-0.2 0.3-0.4 0.4-0.6 0.5-0.8s0-0.3 0-0.3 0.1-0.2 0.1-0.4c0.2-0.8 0.4-2.5-1.2-3.4-2.1-1.2 0-10.5 0-10.5-0.1-0.1-0.1-0.2-0.2-0.3 0 0 0-0.1-0.1-0.1 0-0.1 0-0.1-0.1-0.2v-0.1c-0.1-0.3-0.2-0.6-0.3-0.8v-0.2c0-0.1 0.1-0.1 0.1-0.2s0-0.1 0.1-0.2c0.1-0.6-0.1-1.5-0.3-2.2 0-0.1-0.1-0.2-0.1-0.3s-0.1-0.3-0.1-0.4c-0.2-0.5-0.3-0.8-0.3-0.9h64.6s-0.1 0.2-0.2 0.5c0 0.1 0 0.1-0.1 0.2-0.1 0.3-0.3 0.7-0.4 1.1 0 0.1 0 0.2-0.1 0.3 0 0.1-0.1 0.2-0.1 0.4v0.2c-0.1 0.3-0.1 0.6-0.1 0.9 0 0.4 0 0.8 0.1 1.2 0 0.1 0.1 0.2 0.1 0.3v0.1c0 0.2 0.1 0.5 0 0.8 0 0.1 0 0.2-0.1 0.3l-0.1 0.1c-0.4 0.2 1.4 2.9 1.4 2.9s0 0 0 0c0.2 0.2 1.4 1.9-1 3.8-1 0.8-1.2 1.7-1 2.5 0 0.2 0.1 0.5 0.2 0.7 0.1 0.1 0.1 0.3 0.2 0.4 0.2 0.3 0.4 0.6 0.5 0.7l0.1 0.1s0 0 0 0 0.1 0.1 0.3 0.2c0.1 0.1 0.2 0.2 0.3 0.4 0.5 0.7 1.1 1.9-0.2 3.1-0.3 0.3-0.6 0.5-1 0.7-0.3 0.2-0.5 0.4-0.7 0.6l-0.1 0.1c-1 1.1-0.2 2.4 0.7 3.2 0.7 0.6 1.4 1.1 1.4 1.1s0 0 0 0v0.1c0.2 0.2 0.9 1.2 0.3 2.3-0.1 0.1-0.1 0.2-0.2 0.3-0.3 0.5-0.8 0.9-1.6 1.4-2 1.7-1.4 3-0.5 4z"
     fill="url(#s)"
     opacity=".4"
     id="path5434"
     inkscape:export-xdpi="96"
     inkscape:export-ydpi="96" /><radialGradient
     id="t"
     cx="653.39"
     cy="389.91"
     r="106.73"
     fx="653.72"
     fy="368.97"
     gradientTransform="matrix(.029264 -.9996 .8228 .024088 313.46 1033.6)"
     gradientUnits="userSpaceOnUse"><stop
       stop-color="#27B1E1"
       offset="0"
       id="stop5436" /><stop
       stop-color="#27AFE1"
       offset=".2187"
       id="stop5438" /><stop
       stop-color="#27AAE1"
       offset=".2849"
       id="stop5440" /><stop
       stop-color="#27A8DF"
       offset=".5873"
       id="stop5442" /><stop
       stop-color="#27A1D9"
       offset=".6962"
       id="stop5444" /><stop
       stop-color="#2795CE"
       offset=".7738"
       id="stop5446" /><stop
       stop-color="#2785BE"
       offset=".8366"
       id="stop5448" /><stop
       stop-color="#276FAA"
       offset=".8904"
       id="stop5450" /><stop
       stop-color="#265390"
       offset=".938"
       id="stop5452" /><stop
       stop-color="#263473"
       offset=".9799"
       id="stop5454" /><stop
       stop-color="#262262"
       offset="1"
       id="stop5456" /></radialGradient><linearGradient
     id="u"
     x1="650.33"
     x2="653.03"
     y1="495.36"
     y2="537.17"
     gradientUnits="userSpaceOnUse"><stop
       stop-color="#414042"
       offset="0"
       id="stop5463" /><stop
       stop-color="#918D90"
       offset=".1"
       id="stop5465" /><stop
       stop-color="#231F20"
       offset=".1946"
       id="stop5467" /><stop
       stop-color="#918D90"
       offset=".3"
       id="stop5469" /><stop
       stop-color="#231F20"
       offset=".4"
       id="stop5471" /><stop
       stop-color="#918D90"
       offset=".5"
       id="stop5473" /><stop
       stop-color="#231F20"
       offset=".6"
       id="stop5475" /><stop
       stop-color="#918D90"
       offset=".7"
       id="stop5477" /><stop
       stop-color="#635F61"
       offset=".8124"
       id="stop5479" /><stop
       stop-color="#353132"
       offset=".9374"
       id="stop5481" /><stop
       stop-color="#231F20"
       offset="1"
       id="stop5483" /></linearGradient><linearGradient
     id="v"
     x1="650.35"
     x2="650.35"
     y1="479.28"
     y2="484.84"
     gradientUnits="userSpaceOnUse"><stop
       stop-color="#231F20"
       offset="0"
       id="stop5492" /><stop
       stop-color="#808285"
       offset=".075269"
       id="stop5494" /><stop
       stop-color="#6D6E71"
       offset=".1774"
       id="stop5496" /><stop
       stop-color="#939598"
       offset=".2151"
       id="stop5498" /><stop
       stop-color="#939598"
       offset=".3065"
       id="stop5500" /><stop
       stop-color="#808285"
       offset=".5215"
       id="stop5502" /><stop
       stop-color="#939598"
       offset=".7204"
       id="stop5504" /><stop
       stop-color="#939598"
       offset=".8387"
       id="stop5506" /><stop
       stop-color="#6D6E71"
       offset=".8871"
       id="stop5508" /><stop
       stop-color="#58595B"
       offset=".9516"
       id="stop5510" /><stop
       stop-color="#231F20"
       offset="1"
       id="stop5512" /></linearGradient><linearGradient
     id="w"
     x1="618.07"
     x2="683.58"
     y1="508.38"
     y2="508.38"
     gradientUnits="userSpaceOnUse"><stop
       stop-color="#717369"
       offset="0"
       id="stop5519" /><stop
       stop-color="#918D90"
       offset=".086022"
       id="stop5521" /><stop
       stop-color="#72786D"
       offset=".172"
       id="stop5523" /><stop
       stop-color="#434747"
       offset=".2688"
       id="stop5525" /><stop
       stop-color="#898989"
       offset=".3817"
       id="stop5527" /><stop
       stop-color="#EBE8E4"
       offset=".5108"
       id="stop5529" /><stop
       stop-color="#C1C1C2"
       offset=".7312"
       id="stop5531" /><stop
       stop-color="#A69DA6"
       offset=".8387"
       id="stop5533" /><stop
       stop-color="#A2A39A"
       offset="1"
       id="stop5535" /></linearGradient><ellipse
     style="fill:url(#radialGradient5556);fill-opacity:1;stroke-width:1.37868035"
     id="path5548"
     cx="483.64182"
     cy="387.37314"
     rx="108.05971"
     ry="161.79105"
     inkscape:export-xdpi="96"
     inkscape:export-ydpi="96" /></svg>