<?xml version="1.0" encoding="UTF-8"?>
<svg width="210mm" height="297mm" version="1.1" viewBox="0 0 744.09448819 1052.3622047" xmlns="http://www.w3.org/2000/svg">
 <path d="m142.88 358.13c-2.3951-0.0758-6.9304-0.44589-8.9507-0.73026-6.3789-0.89787-11.46-2.0901-17.115-4.0156-9.9135-3.3758-19.078-8.4345-27.313-15.077-4.2657-3.4406-8.9176-8.0225-12.539-12.35-7.7973-9.318-13.768-20.531-17.149-32.203-2.1023-7.258-3.1967-14.139-3.4943-21.97-0.1587-4.1764-0.07678-127.96 0.08596-129.88 0.43092-5.0987 0.8466-8.2048 1.5993-11.951 3.2049-15.949 10.534-30.45 21.502-42.541 1.6301-1.7971 5.1951-5.3248 6.8665-6.7948 14.38-12.647 31.895-20.284 50.606-22.066 4.0653-0.38704 4.6962-0.40142 17.606-0.40142s13.541 0.01436 17.606 0.40142c19.093 1.8178 37.062 9.7924 51.442 22.829 1.7565 1.5925 5.2963 5.1701 6.7477 6.8198 8.0704 9.1728 13.963 19.311 17.802 30.628 2.7831 8.2043 4.2936 16.416 4.6605 25.337 0.13594 3.3051 0.13594 124.66 0 127.97-0.11755 2.8582-0.30358 5.1347-0.63941 7.8243-2.8914 23.157-14.787 44.257-33.194 58.879-9.7499 7.7449-21.119 13.404-33.147 16.5-4.2252 1.0874-8.5779 1.8771-12.787 2.3196-4.3696 0.45947-4.7015 0.46889-17.262 0.48969-6.5999 0.0109-12.42 7e-3 -12.934-0.01zm34.34-65.888c17.548-21.26 31.906-38.712 31.906-38.781s-9.8483-10.044-21.885-22.166c-12.037-12.123-21.885-22.08-21.885-22.127 0-0.0473 6.3737-6.3354 14.164-13.974 25.793-25.29 29.803-29.229 29.834-29.307 0.0172-0.0425-3.2147-3.8306-7.182-8.418-3.9673-4.5873-18.477-21.372-32.244-37.3l-25.031-28.96-0.0492 48.674-0.0492 48.674-17.255-17.374-17.255-17.374-3.6957 3.6276c-2.0326 1.9952-4.6468 4.5821-5.8094 5.7487l-2.1136 2.1211 4.8235 4.8445c4.6051 4.6251 30.436 30.644 35.96 36.221l2.6301 2.6557-21.629 21.196c-11.896 11.658-21.631 21.235-21.634 21.283-0.0029 0.0474 1.9554 2.0835 4.3513 4.5246 2.396 2.441 4.9521 5.0503 5.6803 5.7983l1.324 1.36 17.311-16.974 17.311-16.974 0.0247 51.07 0.0247 51.07 0.23327-0.24357c0.1283-0.13396 14.591-17.638 32.139-38.899zm-16.045-35.1c0-18.31 0.0343-28.789 0.0942-28.768 0.0518 0.018 5.9136 5.8975 13.026 13.065 12.707 12.806 12.929 13.036 12.754 13.229-0.0977 0.10819-5.8536 7.0794-12.791 15.492-6.9374 8.4122-12.719 15.405-12.849 15.539l-0.23519 0.24366v-28.801zm0-94.503v-27.571l0.23629 0.24366c0.12997 0.13402 5.9519 6.8588 12.938 14.944l12.701 14.7-0.47049 0.4567c-0.25878 0.2512-6.0426 5.9187-12.853 12.594-6.8104 6.6758-12.421 12.153-12.467 12.171-0.047 0.0183-0.0846-12.201-0.0846-27.538z" fill="#0a3d91"/>
</svg>
